<svg xmlns="http://www.w3.org/2000/svg" viewBox="0 0 512 512">
  <defs>
    <linearGradient id="grad1" x1="0%" y1="0%" x2="100%" y2="100%">
      <stop offset="0%" style="stop-color:#1DB954;stop-opacity:1" />
      <stop offset="100%" style="stop-color:#191414;stop-opacity:1" />
    </linearGradient>
  </defs>
  <circle cx="256" cy="256" r="240" fill="#121212" stroke="#1DB954" stroke-width="20"/>
  <path d="M363.5 137c-6.6-3.3-14.7-1-18.3 5.3-43.2 73.6-119 98-197.8 86.8-7.7-1.1-15 4.3-16.1 12s4.3 15 12 16.1c90 12.8 175.7-16.1 225.5-99.7 3.6-6.4 1.4-14.5-5.3-17.8zM350 207.6c-5.5-2.8-12.2-.8-15.3 4.2-34.9 55.4-88.6 71.7-148.8 62.9-6.3-.9-12.2 3.5-13.1 9.8-.9 6.3 3.5 12.2 9.8 13.1 69.2 10.1 130.6-9.8 171.7-74.7 2.9-4.9.9-11.2-4.3-14.1zM324.9 285.9c-4.8-2.6-10.8-.9-13.4 3.9-27.5 42-61.9 51.5-102.7 45.4-5.4-.8-10.4 2.9-11.2 8.3-.8 5.4 2.9 10.4 8.3 11.2 46.9 7 86-4.6 118.9-55.5 2.6-4.8 1-10.8-3.9-13.3z" fill="#1DB954"/>
  <circle cx="180" cy="180" r="20" fill="#FFFFFF" opacity="0.9"/>
  <circle cx="332" cy="180" r="20" fill="#FFFFFF" opacity="0.9"/>
</svg>
